<?xml version="1.0" encoding="UTF-8" standalone="no"?>
<!-- Created with Inkscape (http://www.inkscape.org/) -->

<svg
   width="210mm"
   height="210mm"
   viewBox="0 0 210 210"
   version="1.1"
   id="svg1"
   xmlns="http://www.w3.org/2000/svg"
   xmlns:svg="http://www.w3.org/2000/svg">
  <defs
     id="defs1" />
  <g
     id="layer1"
     transform="matrix(1.3857047,0,0,1.3857047,-40.506951,-31.098013)">
    <path
       style="fill:none;stroke:#ffffff;stroke-width:6;stroke-linecap:round;stroke-dasharray:none;stroke-opacity:1"
       id="path1"
       d="M 82.978445,164.7139 A 61.349255,61.349255 0 0 1 45.730292,98.204631 61.349255,61.349255 0 0 1 101.99315,46.771191 61.349255,61.349255 0 0 1 164.90154,89.822807" />
    <path
       style="fill:none;stroke:#ffffff;stroke-width:6;stroke-linecap:round;stroke-dasharray:none;stroke-opacity:1"
       id="path1-2"
       d="M 163.53639,85.891284 A 61.349255,61.349255 0 0 1 129.92525,164.58603" />
    <path
       d="m 129.07765,166.05256 c 0.56713,-1.99735 0.86187,-7.64068 0.89072,-9.71679 1.3e-4,-13.07323 -11.89515,-24.3294 -24.96837,-24.32927 -13.073062,1.3e-4 -22.373478,13.66526 -22.373355,26.73831 0.02616,2.04197 0.157827,6.11108 0.705022,8.07854"
       style="fill:none;stroke:#ffffff;stroke-width:6;stroke-linecap:round;stroke-dasharray:none"
       id="path3" />
    <ellipse
       style="fill:none;stroke:#ffffff;stroke-width:6;stroke-linecap:round;stroke-dasharray:none;stroke-opacity:1"
       id="path4"
       cx="105"
       cy="99.708336"
       rx="17.85537"
       ry="17.249987" />
    <path
       style="fill:none;stroke:#ffffff;stroke-width:6;stroke-linecap:round;stroke-dasharray:none;stroke-opacity:1"
       id="path4-9"
       d="m 85.605696,71.700449 a 28.025452,27.075253 0 0 1 20.332644,-7.925575 28.025452,27.075253 0 0 1 20.01704,8.642944" />
    <path
       style="fill:none;stroke:#ffffff;stroke-width:6;stroke-linecap:round;stroke-dasharray:none;stroke-opacity:1"
       id="path4-1-2"
       d="M 48.944966,54.876034 A 72.771248,70.30394 0 0 1 109.87134,29.56209 72.771248,70.30394 0 0 1 166.75157,62.511815" />
    <path
       style="fill:none;stroke:#ffffff;stroke-width:6;stroke-linecap:round;stroke-dasharray:none;stroke-opacity:1"
       id="path4-1-2-3"
       d="M 174.64204,79.313864 A 72.771248,70.30394 0 0 1 129.07765,166.05256" />
    <path
       style="fill:none;stroke:#ffffff;stroke-width:6;stroke-linecap:round;stroke-dasharray:none;stroke-opacity:1"
       id="path4-1-2-3-1"
       d="m 83.331667,166.82335 a 72.771248,70.30394 0 0 1 -45.32597,-39.66333 72.771248,70.30394 0 0 1 1.987822,-59.0507" />
    <ellipse
       style="fill:none;stroke:#ffffff;stroke-width:6;stroke-linecap:round;stroke-dasharray:none;stroke-opacity:1"
       id="path4-7-6"
       cx="62.004925"
       cy="52.357006"
       rx="9.3367357"
       ry="9.020175"
       transform="rotate(12.683358)" />
    <path
       style="fill:none;stroke:#ffffff;stroke-width:6;stroke-linecap:round;stroke-dasharray:none;stroke-opacity:1"
       d="m 83.331667,166.82335 c 0,0 -27.263221,-47.07026 -8.567066,-98.086507"
       id="path6" />
    <path
       style="fill:none;stroke:#ffffff;stroke-width:6;stroke-linecap:round;stroke-dasharray:none;stroke-opacity:1"
       d="m 129.07765,166.05256 c 0,0 27.56671,-61.11958 -4.48947,-116.642507"
       id="path6-5" />
    <path
       style="fill:none;stroke:#ffffff;stroke-width:6;stroke-linecap:round;stroke-dasharray:none;stroke-opacity:1"
       d="m 46.633941,120.58845 c 0,0 19.1678,10.81466 46.943461,13.88953 m 24.755168,0.38617 c 14.98839,-1.23503 31.24734,-5.34134 47.66318,-14.2757"
       id="path6-5-5" />
    <path
       d="m 72.20591,76.647367 c -3.059101,-4.112807 -6.333514,-5.345609 -15.72924,-4.477811 0,0 -5.889185,17.16317 8.316274,26.067342 1.556849,0.975852 2.447284,0.188395 3.623285,0.405434"
       style="fill:none;stroke:#ffffff;stroke-width:6;stroke-linecap:round"
       id="path8" />
    <ellipse
       style="fill:none;stroke:#ffffff;stroke-width:6;stroke-linecap:round;stroke-dasharray:none;stroke-opacity:1"
       id="path4-7-6-2"
       cx="-147.38174"
       cy="108.10367"
       rx="9.3367357"
       ry="9.020175"
       transform="matrix(-0.97401735,0.22647342,0.22647342,0.97401735,0,0)" />
    <path
       d="m 143.50654,97.146103 c 12.03067,-14.296088 19.04131,-14.855981 19.04131,-14.855981 0,0 0.20648,27.210398 -19.03108,33.537718"
       style="fill:none;stroke:#ffffff;stroke-width:6;stroke-linecap:round"
       id="path8-0" />
  </g>
  <g
     id="layer2"
     style="display:none">
    <g
       id="g11">
      <path
         style="fill:none;stroke:#ffffff;stroke-width:8;stroke-linecap:round;stroke-dasharray:none;stroke-opacity:1"
         id="path1-4"
         d="M 82.978445,164.7139 A 61.349255,61.349255 0 0 1 46.110377,96.084613 61.349255,61.349255 0 0 1 106.29747,46.620007" />
      <path
         style="fill:none;stroke:#ffffff;stroke-width:8;stroke-linecap:round;stroke-dasharray:none;stroke-opacity:1"
         id="path1-2-3"
         d="M 165.32068,91.236314 A 61.349255,61.349255 0 0 1 129.92525,164.58603" />
      <path
         d="m 129.07052,164.88156 c 0.56713,-1.99735 0.869,-4.06064 0.89785,-6.13675 1.3e-4,-13.07323 -10.59786,-12.63636 -23.67108,-12.63623 -13.073065,1.3e-4 -23.670775,-0.43682 -23.670655,12.63623 0.0262,2.04197 0.31646,4.07197 0.86366,6.03943"
         style="fill:none;stroke:#ffffff;stroke-width:8;stroke-linecap:round;stroke-dasharray:none"
         id="path3-1" />
      <ellipse
         style="fill:none;stroke:#ffffff;stroke-width:6;stroke-linecap:round;stroke-dasharray:none;stroke-opacity:1"
         id="path4-4"
         cx="105"
         cy="110.29166"
         rx="13.93402"
         ry="13.461589" />
      <ellipse
         style="fill:none;stroke:#ffffff;stroke-width:6;stroke-linecap:round;stroke-dasharray:none;stroke-opacity:1"
         id="path4-7-6-9"
         cx="62.004925"
         cy="52.357006"
         rx="9.3367357"
         ry="9.020175"
         transform="rotate(12.683358)" />
      <path
         style="fill:none;stroke:#ffffff;stroke-width:6;stroke-linecap:round;stroke-dasharray:none;stroke-opacity:1"
         d="m 82.978435,164.7139 c 0,0 -33.35139,-55.72299 0,-113.489278"
         id="path6-2" />
      <path
         style="fill:none;stroke:#ffffff;stroke-width:6;stroke-linecap:round;stroke-dasharray:none;stroke-opacity:1"
         d="m 129.07052,164.88156 c 0,0 33.3514,-55.72299 0,-113.489284"
         id="path6-5-0" />
      <path
         style="fill:none;stroke:#ffffff;stroke-width:6.12692;stroke-linecap:round;stroke-dasharray:none;stroke-opacity:1"
         d="m 46.633935,120.58845 c 0,0 58.606395,33.06626 119.361815,0"
         id="path6-5-5-6" />
      <path
         style="fill:none;stroke:#ffffff;stroke-width:6.12692;stroke-linecap:round;stroke-dasharray:none;stroke-opacity:1"
         d="M 152.09928,73.424253 C 134.44796,67.756023 106.48411,62.566284 75.954685,71.466904"
         id="path6-5-5-4-8" />
      <path
         d="m 72.205905,76.647368 c -3.0591,-4.112807 -6.33351,-5.345609 -15.72924,-4.477811 0,0 -5.88918,17.16317 8.31627,26.067342 1.55685,0.975852 2.44729,0.188395 3.62329,0.405434"
         style="fill:none;stroke:#ffffff;stroke-width:6;stroke-linecap:round"
         id="path8-9" />
      <ellipse
         style="fill:none;stroke:#ffffff;stroke-width:6;stroke-linecap:round;stroke-dasharray:none;stroke-opacity:1"
         id="path4-7-6-2-2"
         cx="-138.24844"
         cy="114.6726"
         rx="9.3367357"
         ry="9.020175"
         transform="matrix(-0.97401735,0.22647342,0.22647342,0.97401735,0,0)" />
      <path
         d="m 143.73515,100.49829 c 12.03067,-14.296087 15.34898,-9.683959 15.42858,-9.174609 0,0 3.24366,21.808069 -15.9939,28.135389"
         style="fill:none;stroke:#ffffff;stroke-width:6;stroke-linecap:round"
         id="path8-0-6" />
      <path
         style="fill:none;stroke:#ffffff;stroke-width:7.99999;stroke-linecap:round;stroke-dasharray:none;stroke-opacity:1"
         d="m 106.29747,46.620007 0.0174,38.69379"
         id="path11-6" />
    </g>
  </g>
</svg>
