<?xml version="1.0" encoding="UTF-8" standalone="no"?>
<!-- Created with Inkscape (http://www.inkscape.org/) -->

<svg
   width="210mm"
   height="210mm"
   viewBox="0 0 210 210"
   version="1.1"
   id="svg1"
   sodipodi:docname="logo.svg"
   inkscape:version="1.4 (e7c3feb100, 2024-10-09)"
   xmlns:inkscape="http://www.inkscape.org/namespaces/inkscape"
   xmlns:sodipodi="http://sodipodi.sourceforge.net/DTD/sodipodi-0.dtd"
   xmlns="http://www.w3.org/2000/svg"
   xmlns:svg="http://www.w3.org/2000/svg">
  <sodipodi:namedview
     id="namedview1"
     pagecolor="#505050"
     bordercolor="#eeeeee"
     borderopacity="1"
     inkscape:showpageshadow="0"
     inkscape:pageopacity="0"
     inkscape:pagecheckerboard="0"
     inkscape:deskcolor="#505050"
     inkscape:document-units="mm"
     showgrid="false"
     inkscape:zoom="0.52590265"
     inkscape:cx="177.78956"
     inkscape:cy="446.85076"
     inkscape:window-width="1536"
     inkscape:window-height="827"
     inkscape:window-x="0"
     inkscape:window-y="0"
     inkscape:window-maximized="1"
     inkscape:current-layer="layer1" />
  <defs
     id="defs1" />
  <g
     id="layer1">
    <path
       style="fill:none;stroke:#000000;stroke-width:15;stroke-linecap:round;stroke-dasharray:none;stroke-opacity:1;fill-opacity:1"
       id="path1"
       d="M 56.111642,26.035538 A 79.304863,81.371895 0 0 1 157.06439,25.887835" />
    <path
       d="m 136.12267,192.22115 c 0.73313,-2.64923 1.11412,-10.13437 1.15142,-12.88806 1.8e-4,-17.33996 -14.52099,-21.14684 -31.42046,-21.14666 -16.899262,1.7e-4 -29.777325,7.00222 -29.777167,24.34194 0.03381,2.70841 0.204019,8.10556 0.911367,10.71514"
       style="fill:none;stroke:#000000;stroke-width:20;stroke-linecap:round;stroke-dasharray:none;fill-opacity:1;stroke-opacity:1"
       id="path3"
       sodipodi:nodetypes="ccscc" />
    <ellipse
       style="fill:none;fill-opacity:1;stroke:#000000;stroke-width:10;stroke-linecap:round;stroke-dasharray:none;stroke-opacity:1"
       id="path4"
       cx="104.99802"
       cy="104.22412"
       rx="23.081253"
       ry="22.87989" />
    <path
       style="fill:none;stroke:#000000;stroke-width:15;stroke-linecap:round;stroke-dasharray:none;stroke-opacity:1;fill-opacity:1"
       id="path4-9"
       d="M 79.927421,51.200238 A 36.227901,35.91184 0 0 1 106.211,40.687983 36.227901,35.91184 0 0 1 132.08659,52.151737" />
    <path
       style="fill:none;stroke:#000000;stroke-width:20;stroke-linecap:round;stroke-dasharray:none;stroke-opacity:1;fill-opacity:1"
       id="path4-1-2-3"
       d="M 195.02279,77.173471 C 209.63874,124.97043 183.66907,175.6961 136.12267,192.22115"
       sodipodi:nodetypes="cc" />
    <path
       style="fill:none;stroke:#000000;stroke-width:20;stroke-linecap:round;stroke-dasharray:none;stroke-opacity:1;fill-opacity:1"
       id="path4-1-2-3-1"
       d="M 76.987829,193.24355 A 94.069831,93.249135 0 0 1 18.395918,140.63524 94.069831,93.249135 0 0 1 20.965533,62.312084" />
  </g>
  <g
     id="layer2"
     style="display:none">
    <g
       id="g11">
      <path
         style="fill:none;stroke:#ffffff;stroke-width:8;stroke-linecap:round;stroke-dasharray:none;stroke-opacity:1"
         id="path1-4"
         d="M 82.978445,164.7139 A 61.349255,61.349255 0 0 1 46.110377,96.084613 61.349255,61.349255 0 0 1 106.29747,46.620007" />
      <path
         style="fill:none;stroke:#ffffff;stroke-width:8;stroke-linecap:round;stroke-dasharray:none;stroke-opacity:1"
         id="path1-2-3"
         d="M 165.32068,91.236314 A 61.349255,61.349255 0 0 1 129.92525,164.58603" />
      <path
         d="m 129.07052,164.88156 c 0.56713,-1.99735 0.869,-4.06064 0.89785,-6.13675 1.3e-4,-13.07323 -10.59786,-12.63636 -23.67108,-12.63623 -13.073065,1.3e-4 -23.670775,-0.43682 -23.670655,12.63623 0.0262,2.04197 0.31646,4.07197 0.86366,6.03943"
         style="fill:none;stroke:#ffffff;stroke-width:8;stroke-linecap:round;stroke-dasharray:none"
         id="path3-1" />
      <ellipse
         style="fill:none;stroke:#ffffff;stroke-width:6;stroke-linecap:round;stroke-dasharray:none;stroke-opacity:1"
         id="path4-4"
         cx="105"
         cy="110.29166"
         rx="13.93402"
         ry="13.461589" />
      <ellipse
         style="fill:none;stroke:#ffffff;stroke-width:6;stroke-linecap:round;stroke-dasharray:none;stroke-opacity:1"
         id="path4-7-6-9"
         cx="62.004925"
         cy="52.357006"
         rx="9.3367357"
         ry="9.020175"
         transform="rotate(12.683358)" />
      <path
         style="fill:none;stroke:#ffffff;stroke-width:6;stroke-linecap:round;stroke-dasharray:none;stroke-opacity:1"
         d="m 82.978435,164.7139 c 0,0 -33.35139,-55.72299 0,-113.489278"
         id="path6-2" />
      <path
         style="fill:none;stroke:#ffffff;stroke-width:6;stroke-linecap:round;stroke-dasharray:none;stroke-opacity:1"
         d="m 129.07052,164.88156 c 0,0 33.3514,-55.72299 0,-113.489284"
         id="path6-5-0" />
      <path
         style="fill:none;stroke:#ffffff;stroke-width:6.12692;stroke-linecap:round;stroke-dasharray:none;stroke-opacity:1"
         d="m 46.633935,120.58845 c 0,0 58.606395,33.06626 119.361815,0"
         id="path6-5-5-6" />
      <path
         style="fill:none;stroke:#ffffff;stroke-width:6.12692;stroke-linecap:round;stroke-dasharray:none;stroke-opacity:1"
         d="M 152.09928,73.424253 C 134.44796,67.756023 106.48411,62.566284 75.954685,71.466904"
         id="path6-5-5-4-8" />
      <path
         d="m 72.205905,76.647368 c -3.0591,-4.112807 -6.33351,-5.345609 -15.72924,-4.477811 0,0 -5.88918,17.16317 8.31627,26.067342 1.55685,0.975852 2.44729,0.188395 3.62329,0.405434"
         style="fill:none;stroke:#ffffff;stroke-width:6;stroke-linecap:round"
         id="path8-9" />
      <ellipse
         style="fill:none;stroke:#ffffff;stroke-width:6;stroke-linecap:round;stroke-dasharray:none;stroke-opacity:1"
         id="path4-7-6-2-2"
         cx="-138.24844"
         cy="114.6726"
         rx="9.3367357"
         ry="9.020175"
         transform="matrix(-0.97401735,0.22647342,0.22647342,0.97401735,0,0)" />
      <path
         d="m 143.73515,100.49829 c 12.03067,-14.296087 15.34898,-9.683959 15.42858,-9.174609 0,0 3.24366,21.808069 -15.9939,28.135389"
         style="fill:none;stroke:#ffffff;stroke-width:6;stroke-linecap:round"
         id="path8-0-6" />
      <path
         style="fill:none;stroke:#ffffff;stroke-width:7.99999;stroke-linecap:round;stroke-dasharray:none;stroke-opacity:1"
         d="m 106.29747,46.620007 0.0174,38.69379"
         id="path11-6" />
    </g>
  </g>
</svg>
